<svg width="26" height="26" viewBox="0 0 26 26" fill="none" xmlns="http://www.w3.org/2000/svg">
<path d="M13.0003 23.8332C18.9836 23.8332 23.8337 18.9831 23.8337 12.9998C23.8337 7.01659 18.9836 2.1665 13.0003 2.1665C7.01708 2.1665 2.16699 7.01659 2.16699 12.9998C2.16699 18.9831 7.01708 23.8332 13.0003 23.8332Z" stroke="#808080" stroke-width="1.5" stroke-linecap="round" stroke-linejoin="round"/>
<path d="M13 16.25C13.862 16.25 14.6886 15.9076 15.2981 15.2981C15.9076 14.6886 16.25 13.862 16.25 13C16.25 12.138 15.9076 11.3114 15.2981 10.7019C14.6886 10.0924 13.862 9.75 13 9.75C12.138 9.75 11.3114 10.0924 10.7019 10.7019C10.0924 11.3114 9.75 12.138 9.75 13C9.75 13.862 10.0924 14.6886 10.7019 15.2981C11.3114 15.9076 12.138 16.25 13 16.25V16.25Z" stroke="#808080" stroke-width="1.5" stroke-linecap="round" stroke-linejoin="round"/>
<path d="M2.16699 13H9.75033M16.2503 13H23.8337" stroke="#808080" stroke-width="1.5"/>
</svg>
