<svg width="26" height="26" viewBox="0 0 26 26" fill="none" xmlns="http://www.w3.org/2000/svg">
<path d="M2.16634 12.9997C2.16634 14.4223 2.44655 15.8311 2.99098 17.1454C3.5354 18.4598 4.33338 19.654 5.33935 20.66C6.34532 21.666 7.53958 22.4639 8.85394 23.0084C10.1683 23.5528 11.577 23.833 12.9997 23.833C14.4223 23.833 15.8311 23.5528 17.1454 23.0084C18.4598 22.4639 19.654 21.666 20.66 20.66C21.666 19.654 22.4639 18.4598 23.0084 17.1454C23.5528 15.831 23.833 14.4223 23.833 12.9997L12.9997 12.9997H2.16634Z" fill="white"/>
<path d="M23.8337 12.9998C23.8337 11.5772 23.5534 10.1685 23.009 8.8541C22.4646 7.53974 21.6666 6.34548 20.6607 5.33951C19.6547 4.33355 18.4604 3.53557 17.1461 2.99114C15.8317 2.44672 14.423 2.1665 13.0003 2.1665C11.5777 2.1665 10.1689 2.44672 8.85459 2.99114C7.54023 3.53557 6.34597 4.33355 5.34 5.33951C4.33403 6.34548 3.53606 7.53974 2.99163 8.8541C2.4472 10.1685 2.16699 11.5772 2.16699 12.9998L13.0003 12.9998H23.8337Z" fill="#CD3131"/>
<circle cx="13" cy="12.9995" r="3.25" fill="white"/>
<path d="M13.0003 23.8332C18.9836 23.8332 23.8337 18.9831 23.8337 12.9998C23.8337 7.01659 18.9836 2.1665 13.0003 2.1665C7.01708 2.1665 2.16699 7.01659 2.16699 12.9998C2.16699 18.9831 7.01708 23.8332 13.0003 23.8332Z" stroke="#173EA5" stroke-width="1.5" stroke-linecap="round" stroke-linejoin="round"/>
<path d="M13 16.25C13.862 16.25 14.6886 15.9076 15.2981 15.2981C15.9076 14.6886 16.25 13.862 16.25 13C16.25 12.138 15.9076 11.3114 15.2981 10.7019C14.6886 10.0924 13.862 9.75 13 9.75C12.138 9.75 11.3114 10.0924 10.7019 10.7019C10.0924 11.3114 9.75 12.138 9.75 13C9.75 13.862 10.0924 14.6886 10.7019 15.2981C11.3114 15.9076 12.138 16.25 13 16.25V16.25Z" stroke="#173EA5" stroke-width="1.5" stroke-linecap="round" stroke-linejoin="round"/>
<path d="M2.16699 13H9.75033M16.2503 13H23.8337" stroke="#173EA5" stroke-width="1.5"/>
</svg>
